<?xml version="1.0" encoding="UTF-8"?>
<svg id="Layer_2" data-name="Layer 2" xmlns="http://www.w3.org/2000/svg" width="360" height="80" viewBox="0 0 360 80">
  <defs>
    <style>
      .cls-1 {
        fill: none;
      }

      .cls-1, .cls-2 {
        stroke-width: 0px;
      }

      .cls-2 {
        fill: #000;
      }
    </style>
  </defs>
  <g id="Layer_1-2" data-name="Layer 1">
    <g>
      <g>
        <g>
          <path class="cls-2" d="M43.44,25.46l-11.2,30.16h-9.02l-11.39-30.16h7.44l7.13,22.81h2.86s7.04-22.81,7.04-22.81h7.13M45.59,23.96h-10.4l-7.37,23.86-7.46-23.86h-10.71l12.52,33.16h11.1l12.31-33.16h0Z"/>
          <path class="cls-2" d="M64.3,25.46c2.78,0,5.02.37,6.67,1.09,1.61.71,2.96,1.74,4.01,3.06,1.07,1.36,1.86,2.96,2.35,4.77.51,1.89.76,3.92.76,6.03,0,3.33-.37,5.91-1.1,7.67-.72,1.74-1.72,3.21-2.99,4.38-1.25,1.15-2.59,1.92-3.99,2.29-2.11.57-4.03.85-5.72.85h-13.72v-30.16h13.72M59.32,51.08h2.51c2.41,0,4.13-.29,5.27-.88,1.21-.64,2.16-1.72,2.8-3.22.6-1.39.89-3.47.89-6.35,0-3.93-.68-6.61-2.09-8.21-1.44-1.63-3.73-2.45-6.82-2.45h-2.56l-1.5,1.5v18.12l1.5,1.5M64.3,23.96h-15.22v33.16h15.22c1.82,0,3.86-.3,6.11-.9,1.64-.44,3.18-1.32,4.62-2.63,1.43-1.32,2.55-2.96,3.36-4.91.81-1.95,1.21-4.7,1.21-8.24,0-2.26-.27-4.4-.81-6.42-.54-2.02-1.42-3.79-2.62-5.31-1.21-1.52-2.73-2.69-4.58-3.51-1.85-.81-4.27-1.22-7.27-1.22h0ZM59.32,49.58v-18.12h2.56c2.65,0,4.55.65,5.7,1.95,1.14,1.3,1.72,3.7,1.72,7.21,0,2.65-.26,4.57-.77,5.76-.51,1.19-1.22,2.01-2.12,2.49-.91.47-2.43.71-4.57.71h-2.51Z"/>
          <path class="cls-2" d="M102.18,25.46c2.99,0,5.28.25,6.8.74,1.37.44,2.44,1.25,3.28,2.45.85,1.22,1.27,2.7,1.27,4.51,0,1.56-.33,2.91-.97,4-.66,1.13-1.55,2.02-2.72,2.72-.73.44-1.79.82-3.15,1.13l-.14,2.88c1.33.45,1.96.8,2.27,1.02.09.07.47.38,1.35,1.47.85,1.05,1.15,1.57,1.27,1.81l3.83,7.42h-8.22l-5.05-9.33c-.82-1.55-1.55-2.53-2.32-3.09-.99-.69-2.12-1.04-3.37-1.04h-.9l-1.5,1.5v11.96h-7.29v-30.16h15.58M95.39,38.89h4.32c.37,0,1.09-.05,3.01-.48,1.04-.21,1.9-.75,2.55-1.59.64-.82.96-1.78.96-2.84,0-1.9-.84-3.01-1.55-3.61-.98-.83-2.5-1.21-4.79-1.21h-4.5l-1.5,1.5v6.74l1.5,1.5M102.18,23.96h-17.08v33.16h10.29v-13.46h.9c.94,0,1.77.26,2.51.77.54.39,1.16,1.24,1.85,2.55l5.48,10.13h11.58l-4.96-9.61c-.24-.48-.72-1.17-1.44-2.06-.71-.89-1.26-1.47-1.64-1.74-.56-.41-1.45-.81-2.67-1.22,1.52-.35,2.72-.78,3.6-1.31,1.37-.83,2.45-1.91,3.24-3.24.79-1.34,1.18-2.92,1.18-4.76,0-2.11-.51-3.9-1.54-5.37-1.03-1.47-2.38-2.48-4.05-3.02s-4.09-.81-7.26-.81h0ZM95.39,37.39v-6.74h4.5c1.87,0,3.14.29,3.82.86.68.57,1.02,1.39,1.02,2.46,0,.72-.21,1.37-.64,1.92-.43.56-.98.9-1.66,1.04-1.34.3-2.25.45-2.71.45h-4.32Z"/>
          <path class="cls-2" d="M134.54,24.89c3.9,0,6.87.7,8.82,2.09,1.53,1.09,2.54,2.7,3.07,4.9l-6.73.39c-.39-1.21-1-2.16-1.82-2.84-1.09-.9-2.56-1.36-4.36-1.36-1.55,0-2.78.37-3.65,1.11-.94.79-1.44,1.82-1.44,2.99,0,.68.22,1.67,1.26,2.56.71.63,1.98,1.11,4.11,1.56,4.33.93,7.44,1.87,9.26,2.8,1.68.85,2.9,1.9,3.63,3.12.74,1.23,1.11,2.58,1.11,4.13,0,1.85-.5,3.5-1.52,5.06-1.02,1.56-2.42,2.72-4.28,3.53-1.91.84-4.39,1.26-7.38,1.26-5.2,0-8.79-.95-10.65-2.82-1.59-1.59-2.6-3.51-3.04-5.82l6.81-.43c.29,1.21.73,2.19,1.34,2.97,1.35,1.72,3.27,2.59,5.7,2.59,1.83,0,3.29-.47,4.36-1.4,1.12-.97,1.7-2.18,1.7-3.52s-.56-2.46-1.63-3.42c-.97-.88-2.86-1.6-5.92-2.27-4.23-.95-7.24-2.19-8.96-3.7-1.6-1.39-2.38-3.11-2.38-5.27,0-1.42.41-2.73,1.24-4.01.82-1.26,2.1-2.27,3.8-3.02,1.78-.78,4.32-1.18,7.55-1.18M134.54,23.39c-3.45,0-6.17.43-8.15,1.3-1.98.87-3.47,2.06-4.46,3.57-.99,1.52-1.48,3.12-1.48,4.83,0,2.59.96,4.73,2.89,6.4,1.92,1.67,5.12,3.02,9.61,4.03,2.74.6,4.49,1.24,5.25,1.92.75.68,1.13,1.45,1.13,2.31,0,.9-.39,1.7-1.19,2.39-.79.69-1.92,1.03-3.38,1.03-1.96,0-3.47-.67-4.52-2.01-.65-.83-1.08-2.04-1.29-3.62l-9.75.61c.29,3.35,1.52,6.11,3.69,8.28,2.17,2.17,6.08,3.26,11.71,3.26,3.21,0,5.87-.46,7.98-1.39,2.11-.93,3.75-2.29,4.93-4.08,1.18-1.79,1.76-3.75,1.76-5.88,0-1.81-.44-3.45-1.32-4.91-.88-1.46-2.29-2.69-4.23-3.68-1.94-.99-5.14-1.96-9.62-2.93-1.81-.38-2.96-.78-3.44-1.22-.5-.42-.75-.9-.75-1.43,0-.72.3-1.34.9-1.84.6-.51,1.5-.76,2.69-.76,1.45,0,2.58.34,3.4,1.02.82.68,1.36,1.76,1.62,3.26l9.66-.56c-.42-3.44-1.75-5.95-3.97-7.52-2.22-1.58-5.45-2.37-9.69-2.37h0Z"/>
        </g>
        <g>
          <path class="cls-2" d="M268.52,7.2l-4.61,12.4h-3.8l-4.68-12.4h3.24l2.91,9.3h.95s2.87-9.3,2.87-9.3h3.12M269.24,6.7h-4.2l-2.98,9.65-3.02-9.65h-4.33l5.06,13.4h4.49l4.98-13.4h0Z"/>
          <path class="cls-2" d="M274.4,7.2v12.4h-3.15V7.2h3.15M274.9,6.7h-4.15v13.4h4.15V6.7h0Z"/>
          <path class="cls-2" d="M288.47,7.2v1.86h-6.45l-.5.5v2.13l.5.5h5.95v1.73h-5.95l-.5.5v2.64l.5.5h6.65v2.04h-10.3V7.2h10.1M288.97,6.7h-11.1v13.4h11.3v-3.04h-7.15v-2.64h6.45v-2.73h-6.45v-2.13h6.95v-2.86h0Z"/>
          <path class="cls-2" d="M302.55,7.2v2.31h-3.72l-.5.5v9.59h-3.14v-9.59l-.5-.5h-3.72v-2.31h11.59M303.05,6.7h-12.59v3.31h4.22v10.09h4.14v-10.09h4.22v-3.31h0Z"/>
          <path class="cls-2" d="M317.27,7.2v12.4h-3.14l-4.87-7.14-.91.28v6.86h-2.9V7.2h3.1l4.9,7.2.91-.28v-6.92h2.9M317.77,6.7h-3.9v7.42l-5.05-7.42h-3.87v13.4h3.9v-7.36l5.02,7.36h3.9V6.7h0Z"/>
          <path class="cls-2" d="M328.2,7.2l4.66,12.4h-3.24l-.56-1.86-.48-.36h-4.7l-.48.36-.55,1.85h-3.13l4.66-12.4h3.83M324.77,15.5h2.95l.48-.65-1.48-4.82h-.96s-1.46,4.82-1.46,4.82l.48.65M328.55,6.7h-4.52l-5.04,13.4h4.23l.65-2.21h4.7l.67,2.21h4.34l-5.04-13.4h0ZM324.77,15l1.46-4.82,1.48,4.82h-2.95Z"/>
          <path class="cls-2" d="M349.44,7.2v12.4h-2.39v-9.72l-.98-.12-2.52,9.85h-2.29l-2.51-9.85-.98.12v9.72h-2.39V7.2h4.56l2,7.78h.97s1.99-7.78,1.99-7.78h4.56M349.94,6.7h-5.45l-2.09,8.16-2.1-8.16h-5.45v13.4h3.39v-10.22l2.61,10.22h3.07l2.62-10.22v10.22h3.39V6.7h0Z"/>
        </g>
        <g>
          <path class="cls-2" d="M278.69,24.7c1.14,0,2.06.15,2.74.45.67.29,1.23.72,1.66,1.27.44.56.77,1.22.97,1.97.21.78.31,1.61.31,2.47,0,1.36-.15,2.41-.45,3.14-.3.72-.71,1.32-1.23,1.81-.52.48-1.07.8-1.66.95-.86.23-1.65.35-2.34.35h-5.65v-12.4h5.65M276.68,35.06h1.02c.96,0,1.64-.11,2.08-.34.47-.25.83-.67,1.09-1.25.24-.55.35-1.38.35-2.53,0-1.56-.27-2.62-.82-3.25-.56-.63-1.46-.96-2.68-.96h-1.03l-.5.5v7.32l.5.5M278.69,24.2h-6.15v13.4h6.15c.74,0,1.56-.12,2.47-.37.66-.18,1.29-.53,1.87-1.07.58-.53,1.03-1.19,1.36-1.98.33-.79.49-1.9.49-3.33,0-.91-.11-1.78-.33-2.6-.22-.82-.57-1.53-1.06-2.15-.49-.62-1.11-1.09-1.85-1.42-.75-.33-1.73-.49-2.94-.49h0ZM276.68,34.56v-7.32h1.03c1.07,0,1.84.26,2.3.79.46.52.7,1.5.7,2.92,0,1.07-.11,1.85-.31,2.33-.21.48-.49.81-.86,1.01-.37.19-.98.29-1.85.29h-1.02Z"/>
          <path class="cls-2" d="M297.64,24.7v1.86h-6.45l-.5.5v2.13l.5.5h5.95v1.73h-5.95l-.5.5v2.64l.5.5h6.65v2.04h-10.3v-12.4h10.1M298.14,24.2h-11.1v13.4h11.3v-3.04h-7.15v-2.64h6.45v-2.73h-6.45v-2.13h6.95v-2.86h0Z"/>
          <path class="cls-2" d="M306.04,24.48c1.6,0,2.82.29,3.63.86.67.48,1.1,1.19,1.31,2.17l-2.93.17c-.15-.51-.39-.9-.73-1.18-.42-.35-.99-.53-1.69-.53-.6,0-1.08.14-1.41.42-.36.3-.55.69-.55,1.13,0,.25.08.62.47.95.27.25.77.44,1.62.61,1.76.38,3.03.76,3.77,1.14.7.36,1.2.79,1.51,1.3.31.52.46,1.08.46,1.73,0,.76-.21,1.46-.63,2.1-.43.65-1.01,1.13-1.78,1.47-.79.35-1.8.52-3.03.52-2.13,0-3.6-.39-4.38-1.17-.69-.69-1.11-1.52-1.28-2.53l2.96-.19c.11.52.29.93.54,1.24.52.67,1.27,1.01,2.22,1.01.71,0,1.28-.18,1.69-.54.43-.37.65-.83.65-1.34s-.21-.93-.62-1.31c-.38-.34-1.13-.62-2.35-.89-1.73-.39-2.96-.9-3.67-1.52-.67-.58-1-1.3-1-2.21,0-.59.17-1.15.52-1.68.35-.53.86-.95,1.58-1.26.74-.32,1.78-.48,3.09-.48M306.04,23.98c-1.39,0-2.49.18-3.29.53-.8.35-1.4.83-1.8,1.45-.4.61-.6,1.26-.6,1.95,0,1.05.39,1.91,1.17,2.59.77.68,2.07,1.22,3.89,1.63,1.11.24,1.82.5,2.12.78.3.28.46.59.46.93,0,.37-.16.69-.48.96-.32.28-.78.42-1.37.42-.79,0-1.4-.27-1.83-.81-.26-.33-.44-.82-.52-1.46l-3.94.25c.12,1.35.61,2.47,1.49,3.35.88.88,2.46,1.32,4.74,1.32,1.3,0,2.38-.19,3.23-.56s1.52-.92,1.99-1.65c.47-.72.71-1.52.71-2.38,0-.73-.18-1.39-.54-1.98-.36-.59-.93-1.09-1.71-1.49-.78-.4-2.08-.79-3.89-1.18-.73-.15-1.19-.32-1.39-.49-.2-.17-.3-.36-.3-.58,0-.29.12-.54.37-.74.24-.21.61-.31,1.09-.31.58,0,1.04.14,1.38.41.33.27.55.71.65,1.32l3.9-.23c-.17-1.39-.71-2.4-1.61-3.04-.9-.64-2.21-.96-3.92-.96h0Z"/>
          <path class="cls-2" d="M317.91,24.7v12.4h-3.15v-12.4h3.15M318.41,24.2h-4.15v13.4h4.15v-13.4h0Z"/>
          <path class="cls-2" d="M328.09,24.48c1.41,0,2.48.13,3.15.37.65.24,1.19.61,1.62,1.1.33.39.61.87.82,1.43l-3.03.54c-.2-.42-.49-.76-.87-1.01-.48-.32-1.08-.49-1.78-.49-1.06,0-1.92.38-2.55,1.12-.62.72-.93,1.84-.93,3.32,0,1.59.31,2.71.94,3.44.64.73,1.54,1.1,2.66,1.1.52,0,1.01-.08,1.48-.22.46-.15.97-.38,1.55-.73l.24-.43v-1.26l-.5-.5h-2.27v-1.79h5.4v4.95c-1.09.72-2.07,1.23-2.9,1.5-.89.28-1.96.43-3.2.43-1.5,0-2.73-.25-3.65-.75-.91-.49-1.62-1.23-2.12-2.21-.51-.99-.77-2.16-.77-3.47s.28-2.57.84-3.57c.55-.98,1.37-1.74,2.43-2.26.84-.4,2-.6,3.45-.6M328.09,23.98c-1.54,0-2.76.22-3.67.65-1.16.56-2.05,1.38-2.65,2.46-.6,1.08-.91,2.35-.91,3.82s.28,2.62.83,3.7c.55,1.07,1.33,1.88,2.33,2.42,1,.54,2.3.81,3.89.81,1.29,0,2.41-.15,3.35-.45.94-.3,2.03-.87,3.25-1.71v-5.71h-6.4v2.79h2.77v1.26c-.54.32-1.02.55-1.45.69-.42.13-.86.2-1.33.2-.97,0-1.73-.31-2.28-.93-.54-.62-.82-1.66-.82-3.11,0-1.37.27-2.36.81-2.99.54-.63,1.26-.95,2.17-.95.61,0,1.11.13,1.5.4.39.27.67.66.84,1.16l4-.71c-.24-.87-.61-1.58-1.09-2.14-.48-.56-1.09-.98-1.83-1.25s-1.84-.4-3.32-.4h0Z"/>
          <path class="cls-2" d="M349.32,24.7v12.4h-3.14l-4.87-7.14-.91.28v6.86h-2.9v-12.4h3.1l4.9,7.2.91-.28v-6.92h2.9M349.82,24.2h-3.9v7.42l-5.05-7.42h-3.87v13.4h3.9v-7.36l5.02,7.36h3.9v-13.4h0Z"/>
        </g>
        <g>
          <path class="cls-2" d="M245.44,42.43c1.22,0,2.16.1,2.78.31.57.19,1.03.52,1.38,1.03.36.51.53,1.13.53,1.89,0,.65-.14,1.21-.41,1.67-.28.47-.65.84-1.14,1.14-.3.18-.74.34-1.31.47l-.05.96c.55.19.82.33.95.43.06.05.22.19.56.61.33.41.47.63.53.75l1.63,3.16h-3.56l-2.07-3.83c-.32-.61-.61-1-.91-1.21-.38-.27-.82-.4-1.3-.4h-.37l-.5.5v4.94h-3.16v-12.4h6.4M242.7,47.87h1.75c.15,0,.43-.02,1.19-.19.39-.08.72-.28.97-.61.24-.32.37-.68.37-1.08,0-.59-.2-1.05-.59-1.38-.37-.31-.98-.47-1.87-.47h-1.82l-.5.5v2.72l.5.5M245.44,41.93h-6.9v13.4h4.16v-5.44h.37c.38,0,.71.1,1.01.31.22.16.47.5.75,1.03l2.21,4.1h4.68l-2.01-3.88c-.1-.2-.29-.47-.58-.83-.29-.36-.51-.6-.66-.71-.23-.16-.59-.33-1.08-.49.62-.14,1.1-.32,1.45-.53.56-.34.99-.77,1.31-1.31.32-.54.48-1.18.48-1.93,0-.85-.21-1.58-.62-2.17-.42-.59-.96-1-1.64-1.22-.68-.22-1.66-.33-2.94-.33h0ZM242.7,47.37v-2.72h1.82c.76,0,1.27.12,1.54.35.28.23.41.56.41,1,0,.29-.09.55-.26.78-.17.22-.4.37-.67.42-.54.12-.91.18-1.1.18h-1.75Z"/>
          <path class="cls-2" d="M263.64,42.43v1.86h-6.45l-.5.5v2.13l.5.5h5.95v1.73h-5.95l-.5.5v2.64l.5.5h6.65v2.04h-10.3v-12.4h10.1M264.14,41.93h-11.1v13.4h11.3v-3.04h-7.15v-2.64h6.45v-2.73h-6.45v-2.13h6.95v-2.86h0Z"/>
          <path class="cls-2" d="M272.05,42.21c1.6,0,2.82.29,3.63.86.67.48,1.1,1.19,1.31,2.17l-2.93.17c-.15-.51-.39-.9-.73-1.18-.42-.35-.99-.53-1.69-.53-.6,0-1.08.14-1.41.42-.36.3-.55.69-.55,1.13,0,.25.08.62.47.95.27.25.77.44,1.62.61,1.76.38,3.03.76,3.77,1.14.7.36,1.2.79,1.51,1.3.31.52.46,1.08.46,1.73,0,.76-.21,1.46-.63,2.1-.43.65-1.01,1.13-1.78,1.47-.79.35-1.8.52-3.03.52-2.13,0-3.6-.39-4.38-1.17-.69-.69-1.11-1.52-1.28-2.53l2.96-.19c.11.52.29.93.54,1.24.52.67,1.27,1.01,2.22,1.01.71,0,1.28-.18,1.69-.54.43-.37.65-.83.65-1.34s-.21-.93-.62-1.31c-.38-.34-1.13-.62-2.35-.89-1.73-.39-2.96-.9-3.67-1.52-.67-.58-1-1.31-1-2.21,0-.59.17-1.15.52-1.68.35-.53.86-.95,1.58-1.26.74-.32,1.78-.48,3.09-.48M272.05,41.71c-1.39,0-2.49.18-3.29.53-.8.35-1.4.83-1.8,1.45-.4.61-.6,1.26-.6,1.95,0,1.05.39,1.91,1.17,2.59.77.68,2.07,1.22,3.89,1.63,1.11.24,1.82.5,2.12.78.3.28.46.59.46.93,0,.37-.16.69-.48.96-.32.28-.78.42-1.37.42-.79,0-1.4-.27-1.83-.81-.26-.33-.44-.82-.52-1.46l-3.94.25c.12,1.35.61,2.47,1.49,3.35.88.88,2.46,1.32,4.74,1.32,1.3,0,2.38-.19,3.23-.56s1.52-.92,1.99-1.65c.47-.72.71-1.52.71-2.38,0-.73-.18-1.39-.54-1.98-.36-.59-.93-1.09-1.71-1.49-.78-.4-2.08-.79-3.89-1.18-.73-.15-1.19-.32-1.39-.49-.2-.17-.3-.36-.3-.58,0-.29.12-.54.37-.74.24-.21.61-.31,1.09-.31.58,0,1.04.14,1.38.41.33.27.55.71.65,1.32l3.9-.23c-.17-1.39-.71-2.4-1.61-3.04-.9-.64-2.21-.96-3.92-.96h0Z"/>
          <path class="cls-2" d="M290.69,42.43v1.86h-6.45l-.5.5v2.13l.5.5h5.95v1.73h-5.95l-.5.5v2.64l.5.5h6.65v2.04h-10.3v-12.4h10.1M291.19,41.93h-11.1v13.4h11.3v-3.04h-7.15v-2.64h6.45v-2.73h-6.45v-2.13h6.95v-2.86h0Z"/>
          <path class="cls-2" d="M301.49,42.43l4.66,12.4h-3.24l-.56-1.86-.48-.36h-4.7l-.48.36-.55,1.85h-3.13l4.66-12.4h3.83M298.06,50.73h2.95l.48-.65-1.48-4.82h-.96s-1.46,4.82-1.46,4.82l.48.65M301.83,41.93h-4.52l-5.04,13.4h4.23l.65-2.21h4.7l.67,2.21h4.34l-5.04-13.4h0ZM298.06,50.23l1.46-4.82,1.48,4.82h-2.95Z"/>
          <path class="cls-2" d="M315.15,42.43c1.22,0,2.16.1,2.78.31.57.19,1.03.52,1.38,1.03.36.51.53,1.13.53,1.89,0,.65-.14,1.21-.41,1.67-.28.47-.65.84-1.14,1.14-.3.18-.74.34-1.31.47l-.05.96c.55.19.82.33.95.43.06.05.22.19.56.61.33.41.47.63.53.75l1.63,3.16h-3.56l-2.07-3.83c-.32-.61-.61-1-.91-1.21-.38-.27-.82-.4-1.3-.4h-.37l-.5.5v4.94h-3.16v-12.4h6.4M312.4,47.87h1.75c.15,0,.43-.02,1.19-.19.39-.08.72-.28.97-.61.24-.32.36-.68.36-1.08,0-.59-.2-1.05-.59-1.38-.37-.31-.98-.47-1.87-.47h-1.82l-.5.5v2.72l.5.5M315.15,41.93h-6.9v13.4h4.16v-5.44h.37c.38,0,.71.1,1.01.31.22.16.47.5.75,1.03l2.21,4.1h4.68l-2.01-3.88c-.1-.2-.29-.47-.58-.83-.29-.36-.51-.6-.66-.71-.23-.16-.59-.33-1.08-.49.62-.14,1.1-.32,1.45-.53.56-.34.99-.77,1.31-1.31.32-.54.48-1.18.48-1.93,0-.85-.21-1.58-.62-2.17-.42-.59-.96-1-1.64-1.22-.68-.22-1.66-.33-2.94-.33h0ZM312.4,47.37v-2.72h1.82c.76,0,1.27.12,1.54.35.28.23.41.56.41,1,0,.29-.09.55-.26.78-.17.22-.4.37-.67.42-.54.12-.91.18-1.1.18h-1.75Z"/>
          <path class="cls-2" d="M328.7,42.21c1.57,0,2.82.31,3.69.93.75.53,1.35,1.33,1.77,2.37l-2.67.59c-.1-.25-.21-.46-.32-.61-.28-.38-.63-.68-1.03-.88-.4-.21-.86-.31-1.35-.31-1.11,0-1.98.46-2.57,1.35-.44.65-.65,1.61-.65,2.92,0,1.62.26,2.72.79,3.37.55.67,1.32,1.01,2.29,1.01s1.66-.28,2.17-.83c.37-.41.66-.96.87-1.65l2.67.81c-.23.75-.54,1.39-.94,1.91-.47.61-1.06,1.08-1.76,1.39-.71.32-1.64.48-2.76.48-1.38,0-2.51-.2-3.36-.59-.83-.38-1.56-1.07-2.18-2.05-.62-.98-.93-2.27-.93-3.83,0-2.07.55-3.67,1.62-4.76,1.08-1.09,2.64-1.64,4.65-1.64M328.7,41.71c-2.16,0-3.83.6-5.01,1.79-1.18,1.19-1.77,2.89-1.77,5.11,0,1.66.34,3.03,1.01,4.09.67,1.07,1.47,1.81,2.39,2.23.92.42,2.11.63,3.57.63,1.2,0,2.19-.17,2.97-.52.78-.35,1.43-.86,1.95-1.54.52-.68.91-1.53,1.15-2.55l-3.63-1.1c-.18.85-.48,1.49-.88,1.94-.41.44-1.01.67-1.8.67s-1.45-.28-1.9-.83c-.45-.55-.68-1.57-.68-3.05,0-1.2.19-2.08.57-2.64.5-.76,1.22-1.13,2.16-1.13.41,0,.79.09,1.12.26.34.17.62.41.85.73.14.19.27.49.4.89l3.66-.81c-.47-1.41-1.19-2.46-2.15-3.15-.97-.68-2.29-1.02-3.98-1.02h0Z"/>
          <path class="cls-2" d="M349.33,42.43v12.4h-3.16v-4.92l-.5-.5h-4.53l-.5.5v4.92h-3.14v-12.4h3.14v4.19l.5.5h4.53l.5-.5v-4.19h3.16M349.83,41.93h-4.16v4.69h-4.53v-4.69h-4.14v13.4h4.14v-5.42h4.53v5.42h4.16v-13.4h0Z"/>
        </g>
        <g>
          <path class="cls-2" d="M277.96,59.94c1.6,0,2.82.29,3.63.86.67.48,1.1,1.19,1.31,2.17l-2.93.17c-.15-.51-.39-.9-.73-1.18-.42-.35-.99-.53-1.69-.53-.6,0-1.08.14-1.41.42-.36.3-.55.69-.55,1.13,0,.25.08.62.47.95.27.25.77.44,1.62.61,1.76.38,3.03.76,3.77,1.14.7.36,1.2.79,1.51,1.3.31.52.46,1.08.46,1.73,0,.76-.21,1.46-.63,2.1-.43.65-1.01,1.13-1.78,1.47-.79.35-1.8.52-3.03.52-2.13,0-3.6-.39-4.38-1.17-.69-.69-1.11-1.52-1.28-2.53l2.96-.19c.11.52.29.93.54,1.24.52.67,1.27,1.01,2.22,1.01.71,0,1.28-.18,1.69-.54.43-.37.65-.83.65-1.34s-.21-.93-.62-1.31c-.38-.34-1.13-.62-2.35-.89-1.73-.39-2.96-.9-3.67-1.52-.67-.58-1-1.31-1-2.21,0-.59.17-1.15.52-1.68.35-.53.86-.95,1.58-1.26.74-.32,1.78-.48,3.09-.48M277.96,59.44c-1.39,0-2.49.18-3.29.53-.8.35-1.4.83-1.8,1.45-.4.61-.6,1.26-.6,1.95,0,1.05.39,1.91,1.17,2.59.77.68,2.07,1.22,3.89,1.63,1.11.24,1.82.5,2.12.78.3.28.46.59.46.93,0,.37-.16.69-.48.96-.32.28-.78.42-1.37.42-.79,0-1.4-.27-1.83-.81-.26-.33-.44-.82-.52-1.46l-3.94.25c.12,1.35.61,2.47,1.49,3.35.88.88,2.46,1.32,4.74,1.32,1.3,0,2.38-.19,3.23-.56s1.52-.92,1.99-1.65c.47-.72.71-1.52.71-2.38,0-.73-.18-1.39-.54-1.98-.36-.59-.93-1.09-1.71-1.49-.78-.4-2.08-.79-3.89-1.18-.73-.15-1.19-.32-1.39-.49-.2-.17-.3-.36-.3-.58,0-.29.12-.54.37-.74.24-.21.61-.31,1.09-.31.58,0,1.04.14,1.38.41.33.27.55.71.65,1.32l3.9-.23c-.17-1.39-.71-2.4-1.61-3.04-.9-.64-2.21-.96-3.92-.96h0Z"/>
          <path class="cls-2" d="M297.15,60.17v2.31h-3.72l-.5.5v9.59h-3.14v-9.59l-.5-.5h-3.72v-2.31h11.59M297.65,59.67h-12.59v3.31h4.22v10.09h4.14v-10.09h4.22v-3.31h0Z"/>
          <path class="cls-2" d="M311.88,60.17v7.49c0,.73-.11,1.43-.34,2.08-.22.63-.57,1.19-1.04,1.66-.47.47-.97.81-1.48,1-.74.28-1.66.42-2.72.42-.64,0-1.33-.04-2.08-.13-.71-.08-1.3-.25-1.76-.49-.46-.24-.89-.59-1.27-1.04-.38-.44-.64-.9-.78-1.36-.24-.8-.36-1.51-.36-2.12v-7.49h3.13v7.68c0,.86.25,1.56.75,2.06.5.51,1.19.77,2.04.77s1.53-.25,2.03-.75c.5-.5.75-1.2.75-2.08v-7.68h3.13M312.38,59.67h-4.13v8.18c0,.74-.2,1.32-.61,1.72-.41.4-.96.61-1.68.61s-1.28-.21-1.69-.62c-.4-.41-.61-.98-.61-1.71v-8.18h-4.13v7.99c0,.66.13,1.41.38,2.27.16.53.45,1.04.88,1.54.43.5.9.88,1.42,1.15.52.27,1.16.45,1.93.54.77.09,1.48.14,2.14.14,1.13,0,2.09-.15,2.9-.45.58-.21,1.13-.58,1.66-1.11.53-.53.91-1.14,1.16-1.85.25-.7.37-1.45.37-2.24v-7.99h0Z"/>
          <path class="cls-2" d="M321.33,60.17c1.14,0,2.06.15,2.74.45.67.29,1.23.72,1.66,1.27.44.56.77,1.22.97,1.97.21.78.31,1.61.31,2.47,0,1.36-.15,2.41-.45,3.14-.3.72-.71,1.32-1.23,1.81-.52.48-1.07.8-1.66.95-.86.23-1.65.35-2.34.35h-5.65v-12.4h5.65M319.32,70.52h1.02c.96,0,1.64-.11,2.08-.34.47-.25.83-.67,1.09-1.25.24-.55.35-1.38.35-2.53,0-1.56-.27-2.62-.82-3.25-.56-.63-1.46-.96-2.68-.96h-1.03l-.5.5v7.32l.5.5M321.33,59.67h-6.15v13.4h6.15c.74,0,1.56-.12,2.47-.37.66-.18,1.29-.53,1.87-1.07.58-.53,1.03-1.19,1.36-1.98.33-.79.49-1.9.49-3.33,0-.91-.11-1.78-.33-2.6-.22-.82-.57-1.53-1.06-2.15-.49-.62-1.11-1.09-1.85-1.42-.75-.33-1.73-.49-2.94-.49h0ZM319.32,70.02v-7.32h1.03c1.07,0,1.84.26,2.3.79.46.52.7,1.5.7,2.92,0,1.07-.11,1.85-.31,2.33s-.49.81-.86,1.01c-.37.19-.98.29-1.85.29h-1.02Z"/>
          <path class="cls-2" d="M333.51,60.17v12.4h-3.15v-12.4h3.15M334.01,59.67h-4.15v13.4h4.15v-13.4h0Z"/>
          <path class="cls-2" d="M343.38,59.94c2.08,0,3.7.56,4.81,1.65,1.1,1.09,1.66,2.67,1.66,4.68,0,1.47-.25,2.69-.73,3.62-.48.91-1.18,1.63-2.09,2.14-.92.51-2.09.77-3.48.77s-2.62-.23-3.54-.67c-.9-.44-1.64-1.14-2.2-2.09-.57-.96-.85-2.19-.85-3.66,0-2.04.57-3.64,1.68-4.76,1.12-1.12,2.71-1.68,4.74-1.68M343.4,70.7c1.04,0,1.87-.35,2.45-1.05.57-.68.85-1.8.85-3.44,0-1.38-.3-2.42-.89-3.1-.61-.69-1.43-1.04-2.45-1.04s-1.79.36-2.39,1.06c-.59.69-.88,1.76-.88,3.26s.29,2.55.87,3.24c.6.71,1.42,1.06,2.43,1.06M343.38,59.44c-2.18,0-3.87.61-5.09,1.83-1.22,1.22-1.83,2.92-1.83,5.11,0,1.57.31,2.87.92,3.91s1.42,1.8,2.41,2.29c.99.48,2.24.72,3.75.72s2.73-.28,3.72-.84c1-.56,1.76-1.34,2.29-2.34.53-1,.79-2.29.79-3.85,0-2.16-.6-3.84-1.81-5.03-1.21-1.2-2.93-1.8-5.16-1.8h0ZM343.4,70.2c-.87,0-1.55-.29-2.05-.89-.5-.59-.75-1.56-.75-2.92s.25-2.34.76-2.94c.51-.59,1.18-.89,2.01-.89s1.56.29,2.07.87c.51.58.76,1.5.76,2.77,0,1.5-.24,2.54-.73,3.12-.49.58-1.18.87-2.07.87h0Z"/>
        </g>
      </g>
      <rect class="cls-1" width="360" height="80"/>
    </g>
  </g>
</svg>