<?xml version="1.0" encoding="UTF-8"?>
<svg id="Layer_2" data-name="Layer 2" xmlns="http://www.w3.org/2000/svg" width="80" height="80" viewBox="0 0 80 80">
  <defs>
    <style>
      .cls-1 {
        fill: none;
      }

      .cls-1, .cls-2 {
        stroke-width: 0px;
      }

      .cls-2 {
        fill: #000;
      }
    </style>
  </defs>
  <g id="Layer_1-2" data-name="Layer 1">
    <g>
      <g>
        <path class="cls-2" d="M21.98,32.46l-5.6,15.08h-4.51l-5.7-15.08h3.72l3.57,11.4h1.43s3.52-11.4,3.52-11.4h3.57M23.06,31.71h-5.2l-3.68,11.93-3.73-11.93h-5.36l6.26,16.58h5.55l6.16-16.58h0Z"/>
        <path class="cls-2" d="M32.41,32.46c1.39,0,2.51.18,3.33.55.81.36,1.48.87,2,1.53.54.68.93,1.48,1.18,2.39.25.94.38,1.96.38,3.02,0,1.66-.18,2.95-.55,3.84-.36.87-.86,1.61-1.49,2.19-.62.57-1.29.96-1.99,1.15-1.05.28-2.01.43-2.86.43h-6.86v-15.08h6.86M29.92,45.27h1.25c1.2,0,2.07-.14,2.63-.44.61-.32,1.08-.86,1.4-1.61.3-.69.45-1.73.45-3.18,0-1.96-.34-3.31-1.05-4.1-.72-.81-1.87-1.23-3.41-1.23h-1.28l-.75.75v9.06l.75.75M32.41,31.71h-7.61v16.58h7.61c.91,0,1.93-.15,3.05-.45.82-.22,1.59-.66,2.31-1.32.72-.66,1.28-1.48,1.68-2.45s.61-2.35.61-4.12c0-1.13-.14-2.2-.41-3.21-.27-1.01-.71-1.9-1.31-2.66-.6-.76-1.37-1.35-2.29-1.75-.92-.41-2.14-.61-3.64-.61h0ZM29.92,44.52v-9.06h1.28c1.33,0,2.28.32,2.85.97.57.65.86,1.85.86,3.61,0,1.33-.13,2.29-.38,2.88-.26.59-.61,1.01-1.06,1.24-.45.24-1.21.36-2.29.36h-1.25Z"/>
        <path class="cls-2" d="M51.35,32.46c1.5,0,2.64.12,3.4.37.68.22,1.22.62,1.64,1.23.43.61.63,1.35.63,2.26,0,.78-.16,1.45-.49,2-.33.56-.78,1.01-1.36,1.36-.36.22-.9.41-1.58.57l-.07,1.44c.67.22.98.4,1.13.51.05.03.24.19.67.73.42.53.58.79.64.9l1.92,3.71h-4.11l-2.52-4.67c-.41-.78-.78-1.26-1.16-1.54-.5-.34-1.06-.52-1.68-.52h-.45l-.75.75v5.98h-3.65v-15.08h7.79M47.96,39.18h2.16c.19,0,.55-.03,1.51-.24.52-.11.95-.37,1.28-.8.32-.41.48-.89.48-1.42,0-.95-.42-1.51-.77-1.81-.49-.41-1.25-.61-2.4-.61h-2.25l-.75.75v3.37l.75.75M51.35,31.71h-8.54v16.58h5.15v-6.73h.45c.47,0,.89.13,1.26.38.27.2.58.62.93,1.28l2.74,5.07h5.79l-2.48-4.8c-.12-.24-.36-.58-.72-1.03-.36-.45-.63-.74-.82-.87-.28-.2-.72-.41-1.33-.61.76-.17,1.36-.39,1.8-.66.69-.41,1.23-.96,1.62-1.62.39-.67.59-1.46.59-2.38,0-1.06-.26-1.95-.77-2.69-.51-.74-1.19-1.24-2.02-1.51-.84-.27-2.05-.41-3.63-.41h0ZM47.96,38.43v-3.37h2.25c.93,0,1.57.14,1.91.43.34.29.51.7.51,1.23,0,.36-.11.68-.32.96-.21.28-.49.45-.83.52-.67.15-1.12.23-1.36.23h-2.16Z"/>
        <path class="cls-2" d="M67.54,32.18c1.95,0,3.43.35,4.41,1.04.77.54,1.27,1.35,1.53,2.45l-3.36.2c-.19-.61-.5-1.08-.91-1.42-.55-.45-1.28-.68-2.18-.68-.77,0-1.39.19-1.83.55-.47.39-.72.91-.72,1.5,0,.34.11.84.62,1.27.35.32.99.56,2.06.79,2.16.47,3.72.94,4.63,1.4.84.43,1.45.95,1.81,1.56.37.62.55,1.29.55,2.07,0,.92-.25,1.75-.76,2.53-.51.78-1.21,1.36-2.14,1.77-.95.42-2.2.63-3.69.63-2.6,0-4.39-.47-5.33-1.41-.8-.8-1.3-1.75-1.52-2.91l3.41-.21c.15.6.37,1.09.67,1.48.67.86,1.63,1.29,2.85,1.29.91,0,1.65-.23,2.18-.7.56-.48.85-1.09.85-1.76s-.28-1.23-.81-1.71c-.49-.44-1.43-.8-2.96-1.14-2.11-.48-3.62-1.1-4.48-1.85-.8-.69-1.19-1.56-1.19-2.63,0-.71.2-1.37.62-2,.41-.63,1.05-1.14,1.9-1.51.89-.39,2.16-.59,3.78-.59M67.54,31.43c-1.73,0-3.08.22-4.08.65-.99.43-1.73,1.03-2.23,1.79-.49.76-.74,1.56-.74,2.41,0,1.3.48,2.36,1.45,3.2.96.84,2.56,1.51,4.81,2.01,1.37.3,2.25.62,2.62.96.38.34.57.72.57,1.15,0,.45-.2.85-.59,1.19-.4.34-.96.51-1.69.51-.98,0-1.73-.34-2.26-1.01-.32-.42-.54-1.02-.64-1.81l-4.87.31c.14,1.67.76,3.05,1.84,4.14,1.08,1.09,3.04,1.63,5.86,1.63,1.61,0,2.94-.23,3.99-.7,1.05-.46,1.88-1.14,2.46-2.04.59-.9.88-1.88.88-2.94,0-.9-.22-1.72-.66-2.45-.44-.73-1.15-1.34-2.12-1.84s-2.57-.98-4.81-1.46c-.9-.19-1.48-.39-1.72-.61-.25-.21-.37-.45-.37-.71,0-.36.15-.67.45-.92.3-.25.75-.38,1.35-.38.72,0,1.29.17,1.7.51.41.34.68.88.81,1.63l4.83-.28c-.21-1.72-.87-2.97-1.99-3.76-1.11-.79-2.73-1.18-4.85-1.18h0Z"/>
      </g>
      <rect class="cls-1" width="80" height="80"/>
    </g>
  </g>
</svg>