<?xml version="1.0" encoding="UTF-8"?>
<svg id="Layer_2" data-name="Layer 2" xmlns="http://www.w3.org/2000/svg" width="40" height="40" viewBox="0 0 40 40">
  <defs>
    <style>
      .cls-1 {
        fill: none;
      }

      .cls-1, .cls-2 {
        stroke-width: 0px;
      }

      .cls-2 {
        fill: #000;
      }
    </style>
  </defs>
  <g id="Layer_1-2" data-name="Layer 1">
    <g>
      <g>
        <path class="cls-2" d="M10.99,16.23l-2.8,7.54h-2.26l-2.85-7.54h1.86l1.78,5.7h.72s1.76-5.7,1.76-5.7h1.78M11.53,15.86h-2.6l-1.84,5.97-1.87-5.97h-2.68l3.13,8.29h2.78l3.08-8.29h0Z"/>
        <path class="cls-2" d="M16.21,16.23c.69,0,1.26.09,1.67.27.4.18.74.44,1,.77.27.34.47.74.59,1.19.13.47.19.98.19,1.51,0,.83-.09,1.48-.27,1.92-.18.43-.43.8-.75,1.09-.31.29-.65.48-1,.57-.53.14-1.01.21-1.43.21h-3.43v-7.54h3.43M14.96,22.64h.63c.6,0,1.03-.07,1.32-.22.3-.16.54-.43.7-.81.15-.35.22-.87.22-1.59,0-.98-.17-1.65-.52-2.05-.36-.41-.93-.61-1.71-.61h-.64l-.38.38v4.53l.38.38M16.21,15.86h-3.81v8.29h3.81c.46,0,.96-.08,1.53-.23.41-.11.8-.33,1.15-.66.36-.33.64-.74.84-1.23.2-.49.3-1.18.3-2.06,0-.57-.07-1.1-.2-1.61-.14-.5-.35-.95-.66-1.33-.3-.38-.68-.67-1.15-.88-.46-.2-1.07-.31-1.82-.31h0ZM14.96,22.26v-4.53h.64c.66,0,1.14.16,1.42.49.29.32.43.93.43,1.8,0,.66-.06,1.14-.19,1.44-.13.3-.31.5-.53.62-.23.12-.61.18-1.14.18h-.63Z"/>
        <path class="cls-2" d="M25.68,16.23c.75,0,1.32.06,1.7.19.34.11.61.31.82.61.21.31.32.67.32,1.13,0,.39-.08.73-.24,1-.17.28-.39.5-.68.68-.18.11-.45.21-.79.28l-.04.72c.33.11.49.2.57.25.02.02.12.09.34.37.21.26.29.39.32.45l.96,1.85h-2.06l-1.26-2.33c-.21-.39-.39-.63-.58-.77-.25-.17-.53-.26-.84-.26h-.23l-.38.38v2.99h-1.82v-7.54h3.89M23.98,19.59h1.08c.09,0,.27-.01.75-.12.26-.05.48-.19.64-.4.16-.21.24-.44.24-.71,0-.48-.21-.75-.39-.9-.24-.21-.63-.3-1.2-.3h-1.13l-.38.38v1.68l.38.38M25.68,15.86h-4.27v8.29h2.57v-3.36h.23c.23,0,.44.06.63.19.14.1.29.31.46.64l1.37,2.53h2.89l-1.24-2.4c-.06-.12-.18-.29-.36-.52-.18-.22-.32-.37-.41-.44-.14-.1-.36-.2-.67-.31.38-.09.68-.2.9-.33.34-.21.61-.48.81-.81.2-.33.29-.73.29-1.19,0-.53-.13-.98-.38-1.34-.26-.37-.59-.62-1.01-.75-.42-.14-1.02-.2-1.81-.2h0ZM23.98,19.21v-1.68h1.13c.47,0,.79.07.96.21.17.14.25.35.25.62,0,.18-.05.34-.16.48-.11.14-.25.23-.42.26-.34.08-.56.11-.68.11h-1.08Z"/>
        <path class="cls-2" d="M33.77,16.09c.97,0,1.72.18,2.21.52.38.27.64.67.77,1.22l-1.68.1c-.1-.3-.25-.54-.46-.71-.27-.23-.64-.34-1.09-.34-.39,0-.69.09-.91.28-.24.2-.36.46-.36.75,0,.17.06.42.31.63.18.16.5.28,1.03.39,1.08.23,1.86.47,2.31.7.42.21.72.48.91.78.19.31.28.65.28,1.03,0,.46-.12.88-.38,1.26-.26.39-.61.68-1.07.88-.48.21-1.1.32-1.85.32-1.3,0-2.2-.24-2.66-.7-.4-.4-.65-.88-.76-1.46l1.7-.11c.07.3.18.55.34.74.34.43.82.65,1.43.65.46,0,.82-.12,1.09-.35.28-.24.43-.55.43-.88s-.14-.62-.41-.86c-.24-.22-.71-.4-1.48-.57-1.06-.24-1.81-.55-2.24-.92-.4-.35-.59-.78-.59-1.32,0-.35.1-.68.31-1,.2-.31.52-.57.95-.75.45-.19,1.08-.29,1.89-.29M33.77,15.71c-.86,0-1.54.11-2.04.33s-.87.51-1.11.89c-.25.38-.37.78-.37,1.21,0,.65.24,1.18.72,1.6.48.42,1.28.75,2.4,1.01.69.15,1.12.31,1.31.48.19.17.28.36.28.58,0,.23-.1.42-.3.6-.2.17-.48.26-.85.26-.49,0-.87-.17-1.13-.5-.16-.21-.27-.51-.32-.9l-2.44.15c.07.84.38,1.53.92,2.07.54.54,1.52.81,2.93.81.8,0,1.47-.12,2-.35.53-.23.94-.57,1.23-1.02.29-.45.44-.94.44-1.47,0-.45-.11-.86-.33-1.23-.22-.37-.57-.67-1.06-.92s-1.29-.49-2.41-.73c-.45-.09-.74-.2-.86-.31-.12-.11-.19-.22-.19-.36,0-.18.08-.33.23-.46.15-.13.38-.19.67-.19.36,0,.65.08.85.25.21.17.34.44.4.81l2.41-.14c-.11-.86-.44-1.49-.99-1.88-.56-.39-1.36-.59-2.42-.59h0Z"/>
      </g>
      <rect class="cls-1" width="40" height="40"/>
    </g>
  </g>
</svg>