<?xml version="1.0" encoding="UTF-8"?>
<svg id="Layer_2" data-name="Layer 2" xmlns="http://www.w3.org/2000/svg" width="180" height="40" viewBox="0 0 180 40">
  <defs>
    <style>
      .cls-1 {
        fill: none;
      }

      .cls-1, .cls-2 {
        stroke-width: 0px;
      }

      .cls-2 {
        fill: #000;
      }
    </style>
  </defs>
  <g id="Layer_1-2" data-name="Layer 1">
    <g>
      <g>
        <g>
          <path class="cls-2" d="M21.72,12.73l-5.6,15.08h-4.51l-5.7-15.08h3.72l3.57,11.4h1.43s3.52-11.4,3.52-11.4h3.57M22.8,11.98h-5.2l-3.68,11.93-3.73-11.93h-5.36l6.26,16.58h5.55l6.16-16.58h0Z"/>
          <path class="cls-2" d="M32.15,12.73c1.39,0,2.51.18,3.33.55.81.36,1.48.87,2,1.53.54.68.93,1.48,1.18,2.39.25.94.38,1.96.38,3.02,0,1.66-.18,2.95-.55,3.84-.36.87-.86,1.61-1.49,2.19-.62.57-1.29.96-1.99,1.15-1.05.28-2.01.43-2.86.43h-6.86v-15.08h6.86M29.66,25.54h1.25c1.2,0,2.07-.14,2.63-.44.61-.32,1.08-.86,1.4-1.61.3-.69.45-1.73.45-3.18,0-1.96-.34-3.31-1.05-4.1-.72-.81-1.87-1.23-3.41-1.23h-1.28l-.75.75v9.06l.75.75M32.15,11.98h-7.61v16.58h7.61c.91,0,1.93-.15,3.05-.45.82-.22,1.59-.66,2.31-1.32.72-.66,1.28-1.48,1.68-2.45s.61-2.35.61-4.12c0-1.13-.14-2.2-.41-3.21-.27-1.01-.71-1.9-1.31-2.66-.6-.76-1.37-1.35-2.29-1.75-.92-.41-2.14-.61-3.64-.61h0ZM29.66,24.79v-9.06h1.28c1.33,0,2.28.32,2.85.97.57.65.86,1.85.86,3.61,0,1.33-.13,2.29-.38,2.88-.26.59-.61,1.01-1.06,1.24-.45.24-1.21.36-2.29.36h-1.25Z"/>
          <path class="cls-2" d="M51.09,12.73c1.5,0,2.64.12,3.4.37.68.22,1.22.62,1.64,1.23.43.61.63,1.35.63,2.26,0,.78-.16,1.45-.49,2-.33.56-.78,1.01-1.36,1.36-.36.22-.89.41-1.58.57l-.07,1.44c.67.22.98.4,1.13.51.05.03.24.19.67.73.42.53.58.79.64.9l1.92,3.71h-4.11l-2.52-4.67c-.41-.78-.78-1.26-1.16-1.54-.5-.34-1.06-.52-1.68-.52h-.45l-.75.75v5.98h-3.65v-15.08h7.79M47.7,19.45h2.16c.19,0,.55-.03,1.51-.24.52-.11.95-.37,1.28-.8.32-.41.48-.89.48-1.42,0-.95-.42-1.51-.77-1.81-.49-.41-1.25-.61-2.4-.61h-2.25l-.75.75v3.37l.75.75M51.09,11.98h-8.54v16.58h5.15v-6.73h.45c.47,0,.89.13,1.26.38.27.2.58.62.93,1.28l2.74,5.07h5.79l-2.48-4.8c-.12-.24-.36-.58-.72-1.03-.36-.45-.63-.74-.82-.87-.28-.2-.72-.41-1.33-.61.76-.17,1.36-.39,1.8-.66.69-.41,1.23-.96,1.62-1.62.39-.67.59-1.46.59-2.38,0-1.06-.26-1.95-.77-2.69-.51-.74-1.19-1.24-2.02-1.51-.84-.27-2.05-.41-3.63-.41h0ZM47.7,18.7v-3.37h2.25c.93,0,1.57.14,1.91.43.34.29.51.7.51,1.23,0,.36-.11.68-.32.96-.21.28-.49.45-.83.52-.67.15-1.12.23-1.36.23h-2.16Z"/>
          <path class="cls-2" d="M67.27,12.45c1.95,0,3.43.35,4.41,1.04.77.54,1.27,1.35,1.53,2.45l-3.36.2c-.19-.61-.5-1.08-.91-1.42-.55-.45-1.28-.68-2.18-.68-.77,0-1.39.19-1.83.55-.47.39-.72.91-.72,1.5,0,.34.11.84.62,1.27.35.32.99.56,2.06.79,2.16.47,3.72.94,4.63,1.4.84.43,1.45.95,1.81,1.56.37.62.55,1.29.55,2.07,0,.92-.25,1.75-.76,2.53-.51.78-1.21,1.36-2.14,1.77-.95.42-2.2.63-3.69.63-2.6,0-4.39-.47-5.33-1.41-.8-.8-1.3-1.75-1.52-2.91l3.41-.21c.15.6.37,1.09.67,1.48.67.86,1.63,1.29,2.85,1.29.91,0,1.65-.23,2.18-.7.56-.48.85-1.09.85-1.76s-.28-1.23-.81-1.71c-.49-.44-1.43-.8-2.96-1.14-2.11-.48-3.62-1.1-4.48-1.85-.8-.69-1.19-1.56-1.19-2.63,0-.71.2-1.37.62-2,.41-.63,1.05-1.14,1.9-1.51.89-.39,2.16-.59,3.78-.59M67.27,11.7c-1.73,0-3.08.22-4.08.65s-1.73,1.03-2.23,1.79c-.49.76-.74,1.56-.74,2.41,0,1.3.48,2.36,1.45,3.2.96.84,2.56,1.51,4.81,2.01,1.37.3,2.25.62,2.62.96.38.34.57.72.57,1.15,0,.45-.2.85-.59,1.19-.4.34-.96.51-1.69.51-.98,0-1.73-.34-2.26-1.01-.32-.42-.54-1.02-.64-1.81l-4.87.31c.14,1.67.76,3.05,1.84,4.14,1.08,1.09,3.04,1.63,5.86,1.63,1.61,0,2.94-.23,3.99-.7,1.05-.46,1.88-1.14,2.46-2.04.59-.9.88-1.88.88-2.94,0-.9-.22-1.72-.66-2.45-.44-.73-1.15-1.34-2.12-1.84-.97-.49-2.57-.98-4.81-1.46-.9-.19-1.48-.39-1.72-.61-.25-.21-.37-.45-.37-.71,0-.36.15-.67.45-.92.3-.25.75-.38,1.35-.38.72,0,1.29.17,1.7.51.41.34.68.88.81,1.63l4.83-.28c-.21-1.72-.87-2.97-1.99-3.76-1.11-.79-2.73-1.18-4.85-1.18h0Z"/>
        </g>
        <g>
          <path class="cls-2" d="M134.26,3.6l-2.3,6.2h-1.9l-2.34-6.2h1.62l1.45,4.65h.48s1.43-4.65,1.43-4.65h1.56M134.62,3.35h-2.1l-1.49,4.82-1.51-4.82h-2.17l2.53,6.7h2.25l2.49-6.7h0Z"/>
          <path class="cls-2" d="M137.2,3.6v6.2h-1.58V3.6h1.58M137.45,3.35h-2.08v6.7h2.08V3.35h0Z"/>
          <path class="cls-2" d="M144.23,3.6v.93h-3.22l-.25.25v1.07l.25.25h2.97v.87h-2.97l-.25.25v1.32l.25.25h3.33v1.02h-5.15V3.6h5.05M144.48,3.35h-5.55v6.7h5.65v-1.52h-3.58v-1.32h3.22v-1.37h-3.22v-1.07h3.47v-1.43h0Z"/>
          <path class="cls-2" d="M151.27,3.6v1.16h-1.86l-.25.25v4.8h-1.57v-4.8l-.25-.25h-1.86v-1.16h5.79M151.52,3.35h-6.29v1.66h2.11v5.05h2.07v-5.05h2.11v-1.66h0Z"/>
          <path class="cls-2" d="M158.63,3.6v6.2h-1.57l-2.44-3.57-.46.14v3.43h-1.45V3.6h1.55l2.45,3.6.46-.14v-3.46h1.45M158.88,3.35h-1.95v3.71l-2.52-3.71h-1.93v6.7h1.95v-3.68l2.51,3.68h1.95V3.35h0Z"/>
          <path class="cls-2" d="M164.1,3.6l2.33,6.2h-1.62l-.28-.93-.24-.18h-2.35l-.24.18-.27.93h-1.57l2.33-6.2h1.91M162.39,7.75h1.47l.24-.32-.74-2.41h-.48s-.73,2.41-.73,2.41l.24.32M164.27,3.35h-2.26l-2.52,6.7h2.11l.33-1.11h2.35l.33,1.11h2.17l-2.52-6.7h0ZM162.39,7.5l.73-2.41.74,2.41h-1.47Z"/>
          <path class="cls-2" d="M174.72,3.6v6.2h-1.2v-4.86l-.49-.06-1.26,4.92h-1.15l-1.26-4.92-.49.06v4.86h-1.2V3.6h2.28l1,3.89h.48s.99-3.89.99-3.89h2.28M174.97,3.35h-2.72l-1.04,4.08-1.05-4.08h-2.72v6.7h1.7v-5.11l1.3,5.11h1.54l1.31-5.11v5.11h1.7V3.35h0Z"/>
        </g>
        <g>
          <path class="cls-2" d="M139.34,12.35c.57,0,1.03.08,1.37.23.33.15.61.36.83.63.22.28.39.61.48.98.1.39.16.8.16,1.23,0,.68-.08,1.21-.23,1.57-.15.36-.36.66-.62.9-.26.24-.54.4-.83.48-.43.12-.82.17-1.17.17h-2.83v-6.2h2.83M138.34,17.53h.51c.48,0,.82-.06,1.04-.17.23-.12.42-.33.54-.62.12-.28.18-.69.18-1.26,0-.78-.13-1.31-.41-1.62-.28-.32-.73-.48-1.34-.48h-.52l-.25.25v3.66l.25.25M139.34,12.1h-3.08v6.7h3.08c.37,0,.78-.06,1.23-.18.33-.09.64-.27.93-.53.29-.27.52-.6.68-.99.16-.39.25-.95.25-1.67,0-.46-.06-.89-.17-1.3-.11-.41-.29-.77-.53-1.08-.24-.31-.55-.54-.93-.71-.37-.17-.86-.25-1.47-.25h0ZM138.34,17.28v-3.66h.52c.54,0,.92.13,1.15.39.23.26.35.75.35,1.46,0,.54-.05.92-.16,1.16s-.25.41-.43.5c-.18.1-.49.14-.92.14h-.51Z"/>
          <path class="cls-2" d="M148.82,12.35v.93h-3.22l-.25.25v1.07l.25.25h2.97v.87h-2.97l-.25.25v1.32l.25.25h3.33v1.02h-5.15v-6.2h5.05M149.07,12.1h-5.55v6.7h5.65v-1.52h-3.58v-1.32h3.22v-1.37h-3.22v-1.07h3.47v-1.43h0Z"/>
          <path class="cls-2" d="M153.02,12.24c.8,0,1.41.15,1.81.43.34.24.55.59.66,1.08l-1.46.09c-.07-.25-.2-.45-.36-.59-.21-.17-.5-.26-.85-.26-.3,0-.54.07-.7.21-.18.15-.27.34-.27.56,0,.13.04.31.23.47.14.12.39.22.81.31.88.19,1.51.38,1.88.57.35.18.6.4.75.65.16.26.23.54.23.86,0,.38-.11.73-.32,1.05-.21.32-.5.56-.89.73-.39.17-.9.26-1.51.26-1.07,0-1.8-.2-2.19-.58-.34-.34-.55-.76-.64-1.26l1.48-.09c.06.26.15.46.27.62.26.33.64.5,1.11.5.36,0,.64-.09.85-.27.21-.18.33-.42.33-.67s-.1-.47-.31-.65c-.19-.17-.56-.31-1.17-.45-.86-.19-1.48-.45-1.83-.76-.34-.29-.5-.65-.5-1.11,0-.29.09-.58.26-.84.17-.27.43-.47.79-.63.37-.16.89-.24,1.55-.24M153.02,11.99c-.7,0-1.25.09-1.65.26-.4.18-.7.42-.9.72-.2.31-.3.63-.3.98,0,.52.2.96.58,1.29.39.34,1.04.61,1.94.81.55.12.91.25,1.06.39.15.14.23.29.23.47,0,.18-.08.34-.24.48-.16.14-.39.21-.68.21-.4,0-.7-.14-.91-.41-.13-.17-.22-.41-.26-.73l-1.97.12c.06.68.31,1.23.75,1.67.44.44,1.23.66,2.37.66.65,0,1.19-.09,1.61-.28s.76-.46,1-.83c.24-.36.36-.76.36-1.19,0-.37-.09-.7-.27-.99-.18-.3-.46-.54-.86-.74-.39-.2-1.04-.4-1.95-.59-.37-.08-.6-.16-.69-.25-.1-.08-.15-.18-.15-.29,0-.15.06-.27.18-.37.12-.1.3-.15.54-.15.29,0,.52.07.69.21.17.14.28.36.33.66l1.95-.11c-.08-.7-.35-1.2-.8-1.52-.45-.32-1.1-.48-1.96-.48h0Z"/>
          <path class="cls-2" d="M158.95,12.35v6.2h-1.58v-6.2h1.58M159.2,12.1h-2.08v6.7h2.08v-6.7h0Z"/>
          <path class="cls-2" d="M164.04,12.24c.71,0,1.24.06,1.58.19.32.12.6.3.81.55.17.19.3.43.41.71l-1.52.27c-.1-.21-.25-.38-.43-.51-.24-.16-.54-.24-.89-.24-.53,0-.96.19-1.28.56-.31.36-.47.92-.47,1.66,0,.79.15,1.36.47,1.72.32.37.77.55,1.33.55.26,0,.51-.04.74-.11.23-.07.48-.19.78-.37l.12-.21v-.63l-.25-.25h-1.14v-.89h2.7v2.47c-.55.36-1.03.61-1.45.75-.44.14-.98.21-1.6.21-.75,0-1.36-.13-1.83-.38-.45-.24-.81-.62-1.06-1.11-.26-.5-.39-1.08-.39-1.73s.14-1.29.42-1.79c.27-.49.68-.87,1.21-1.13.42-.2,1-.3,1.73-.3M164.04,11.99c-.77,0-1.38.11-1.83.32-.58.28-1.02.69-1.33,1.23-.3.54-.45,1.18-.45,1.91s.14,1.31.41,1.85c.28.54.66.94,1.17,1.21.5.27,1.15.41,1.94.41.65,0,1.21-.08,1.68-.23.47-.15,1.01-.43,1.62-.85v-2.86h-3.2v1.39h1.39v.63c-.27.16-.51.28-.72.34-.21.07-.43.1-.66.1-.49,0-.87-.16-1.14-.47-.27-.31-.41-.83-.41-1.55,0-.68.14-1.18.41-1.5s.63-.47,1.09-.47c.3,0,.55.07.75.2.2.13.34.33.42.58l2-.36c-.12-.43-.3-.79-.55-1.07-.24-.28-.55-.49-.91-.62s-.92-.2-1.66-.2h0Z"/>
          <path class="cls-2" d="M174.66,12.35v6.2h-1.57l-2.44-3.57-.46.14v3.43h-1.45v-6.2h1.55l2.45,3.6.46-.14v-3.46h1.45M174.91,12.1h-1.95v3.71l-2.52-3.71h-1.93v6.7h1.95v-3.68l2.51,3.68h1.95v-6.7h0Z"/>
        </g>
        <g>
          <path class="cls-2" d="M122.72,21.22c.61,0,1.08.05,1.39.15.29.09.51.26.69.51.18.26.27.57.27.94,0,.33-.07.61-.2.84-.14.24-.32.42-.57.57-.15.09-.37.17-.65.24l-.02.48c.28.09.41.17.47.21.03.02.11.09.28.31.17.21.23.32.26.37l.81,1.58h-1.78l-1.04-1.91c-.16-.31-.3-.5-.45-.61-.19-.13-.41-.2-.65-.2h-.18l-.25.25v2.47h-1.58v-6.2h3.2M121.35,23.93h.87c.07,0,.22-.01.6-.1.2-.04.36-.14.49-.3.12-.16.18-.34.18-.54,0-.29-.1-.53-.29-.69-.19-.16-.48-.23-.93-.23h-.91l-.25.25v1.36l.25.25M122.72,20.97h-3.45v6.7h2.08v-2.72h.18c.19,0,.36.05.51.16.11.08.24.25.38.52l1.11,2.05h2.34l-1-1.94c-.05-.1-.15-.24-.29-.42-.14-.18-.25-.3-.33-.35-.11-.08-.29-.16-.54-.25.31-.07.55-.16.73-.26.28-.17.5-.39.65-.66.16-.27.24-.59.24-.96,0-.43-.1-.79-.31-1.09-.21-.3-.48-.5-.82-.61-.34-.11-.83-.17-1.47-.17h0ZM121.35,23.68v-1.36h.91c.38,0,.64.06.77.17.14.12.21.28.21.5,0,.15-.04.28-.13.39-.09.11-.2.18-.34.21-.27.06-.45.09-.55.09h-.87Z"/>
          <path class="cls-2" d="M131.82,21.22v.93h-3.22l-.25.25v1.07l.25.25h2.97v.87h-2.97l-.25.25v1.32l.25.25h3.33v1.02h-5.15v-6.2h5.05M132.07,20.97h-5.55v6.7h5.65v-1.52h-3.58v-1.32h3.22v-1.37h-3.22v-1.07h3.47v-1.43h0Z"/>
          <path class="cls-2" d="M136.02,21.1c.8,0,1.41.15,1.81.43.34.24.55.59.66,1.08l-1.46.09c-.07-.25-.2-.45-.36-.59-.21-.17-.5-.26-.85-.26-.3,0-.54.07-.7.21-.18.15-.27.34-.27.56,0,.13.04.31.23.47.14.12.39.22.81.31.88.19,1.51.38,1.88.57.35.18.6.4.75.65.16.26.23.54.23.86,0,.38-.11.73-.32,1.05-.21.32-.5.56-.89.73-.39.17-.9.26-1.51.26-1.07,0-1.8-.2-2.19-.58-.34-.34-.55-.76-.64-1.26l1.48-.09c.06.26.15.46.27.62.26.33.64.5,1.11.5.36,0,.64-.09.85-.27.21-.18.33-.42.33-.67s-.1-.47-.31-.65c-.19-.17-.56-.31-1.17-.45-.86-.19-1.48-.45-1.83-.76-.34-.29-.5-.65-.5-1.11,0-.29.09-.58.26-.84.17-.27.43-.47.79-.63.37-.16.89-.24,1.55-.24M136.02,20.85c-.7,0-1.25.09-1.65.26-.4.18-.7.42-.9.72-.2.31-.3.63-.3.98,0,.52.2.96.58,1.29.39.34,1.04.61,1.94.81.55.12.91.25,1.06.39.15.14.23.29.23.47,0,.18-.08.34-.24.48-.16.14-.39.21-.68.21-.4,0-.7-.14-.91-.41-.13-.17-.22-.41-.26-.73l-1.97.12c.06.68.31,1.23.75,1.67.44.44,1.23.66,2.37.66.65,0,1.19-.09,1.61-.28s.76-.46,1-.83c.24-.36.36-.76.36-1.19,0-.37-.09-.7-.27-.99-.18-.3-.46-.54-.86-.74-.39-.2-1.04-.4-1.95-.59-.37-.08-.6-.16-.69-.25-.1-.08-.15-.18-.15-.29,0-.15.06-.27.18-.37.12-.1.3-.15.54-.15.29,0,.52.07.69.21.17.14.28.36.33.66l1.95-.11c-.08-.7-.35-1.2-.8-1.52-.45-.32-1.1-.48-1.96-.48h0Z"/>
          <path class="cls-2" d="M145.34,21.22v.93h-3.22l-.25.25v1.07l.25.25h2.97v.87h-2.97l-.25.25v1.32l.25.25h3.33v1.02h-5.15v-6.2h5.05M145.59,20.97h-5.55v6.7h5.65v-1.52h-3.58v-1.32h3.22v-1.37h-3.22v-1.07h3.47v-1.43h0Z"/>
          <path class="cls-2" d="M150.74,21.22l2.33,6.2h-1.62l-.28-.93-.24-.18h-2.35l-.24.18-.27.93h-1.57l2.33-6.2h1.91M149.03,25.36h1.47l.24-.32-.74-2.41h-.48s-.73,2.41-.73,2.41l.24.32M150.92,20.97h-2.26l-2.52,6.7h2.11l.33-1.11h2.35l.33,1.11h2.17l-2.52-6.7h0ZM149.03,25.11l.73-2.41.74,2.41h-1.47Z"/>
          <path class="cls-2" d="M157.57,21.22c.61,0,1.08.05,1.39.15.29.09.51.26.69.51.18.26.27.57.27.94,0,.33-.07.61-.2.84-.14.24-.32.42-.57.57-.15.09-.37.17-.65.24l-.02.48c.28.09.41.17.47.21.03.02.11.09.28.31.17.21.23.32.26.37l.81,1.58h-1.78l-1.04-1.91c-.16-.31-.3-.5-.45-.61-.19-.13-.41-.2-.65-.2h-.18l-.25.25v2.47h-1.58v-6.2h3.2M156.2,23.93h.87c.07,0,.22-.01.6-.1.2-.04.36-.14.49-.3.12-.16.18-.34.18-.54,0-.29-.1-.53-.29-.69-.19-.16-.48-.23-.93-.23h-.91l-.25.25v1.36l.25.25M157.57,20.97h-3.45v6.7h2.08v-2.72h.18c.19,0,.36.05.51.16.11.08.24.25.38.52l1.11,2.05h2.34l-1-1.94c-.05-.1-.15-.24-.29-.42-.14-.18-.25-.3-.33-.35-.11-.08-.29-.16-.54-.25.31-.07.55-.16.73-.26.28-.17.5-.39.65-.66.16-.27.24-.59.24-.96,0-.43-.1-.79-.31-1.09-.21-.3-.48-.5-.82-.61-.34-.11-.83-.17-1.47-.17h0ZM156.2,23.68v-1.36h.91c.38,0,.64.06.77.17.14.12.21.28.21.5,0,.15-.04.28-.13.39-.09.11-.2.18-.34.21-.27.06-.45.09-.55.09h-.87Z"/>
          <path class="cls-2" d="M164.35,21.1c.79,0,1.41.16,1.85.47.38.27.67.67.89,1.19l-1.33.3c-.05-.13-.1-.23-.16-.3-.14-.19-.31-.34-.51-.44-.2-.1-.43-.16-.67-.16-.56,0-.99.23-1.29.68-.22.33-.33.8-.33,1.46,0,.81.13,1.36.4,1.69.27.33.66.5,1.14.5s.83-.14,1.08-.41c.19-.21.33-.48.43-.82l1.33.4c-.11.37-.27.69-.47.95-.23.31-.53.54-.88.7-.35.16-.82.24-1.38.24-.69,0-1.25-.1-1.68-.29-.42-.19-.78-.53-1.09-1.02-.31-.49-.46-1.13-.46-1.91,0-1.04.27-1.84.81-2.38.54-.54,1.32-.82,2.33-.82M164.35,20.85c-1.08,0-1.91.3-2.5.89-.59.59-.88,1.45-.88,2.56,0,.83.17,1.51.5,2.05.33.53.73.91,1.2,1.12.46.21,1.06.32,1.79.32.6,0,1.1-.09,1.48-.26.39-.17.71-.43.98-.77.26-.34.45-.77.58-1.28l-1.82-.55c-.09.42-.24.75-.44.97-.2.22-.5.33-.9.33s-.73-.14-.95-.41-.34-.78-.34-1.53c0-.6.09-1.04.28-1.32.25-.38.61-.57,1.08-.57.21,0,.39.04.56.13.17.08.31.21.43.37.07.09.14.24.2.45l1.83-.41c-.23-.71-.59-1.23-1.08-1.57-.48-.34-1.15-.51-1.99-.51h0Z"/>
          <path class="cls-2" d="M174.66,21.22v6.2h-1.58v-2.46l-.25-.25h-2.26l-.25.25v2.46h-1.57v-6.2h1.57v2.1l.25.25h2.26l.25-.25v-2.1h1.58M174.91,20.97h-2.08v2.35h-2.26v-2.35h-2.07v6.7h2.07v-2.71h2.26v2.71h2.08v-6.7h0Z"/>
        </g>
        <g>
          <path class="cls-2" d="M138.98,29.97c.8,0,1.41.15,1.81.43.34.24.55.59.66,1.08l-1.46.09c-.07-.25-.2-.45-.36-.59-.21-.17-.5-.26-.85-.26-.3,0-.54.07-.7.21-.18.15-.27.34-.27.56,0,.13.04.31.23.47.14.12.39.22.81.31.88.19,1.51.38,1.88.57.35.18.6.4.75.65.16.26.23.54.23.86,0,.38-.11.73-.32,1.05-.21.32-.5.56-.89.73-.39.17-.9.26-1.51.26-1.07,0-1.8-.2-2.19-.58-.34-.34-.55-.76-.64-1.26l1.48-.09c.06.26.15.46.27.62.26.33.64.5,1.11.5.36,0,.64-.09.85-.27.21-.18.33-.42.33-.67s-.1-.47-.31-.65c-.19-.17-.56-.31-1.17-.45-.86-.19-1.48-.45-1.83-.76-.34-.29-.5-.65-.5-1.11,0-.29.09-.58.26-.84.17-.27.43-.47.79-.63.37-.16.89-.24,1.55-.24M138.98,29.72c-.7,0-1.25.09-1.65.26-.4.18-.7.42-.9.72-.2.31-.3.63-.3.98,0,.52.2.96.58,1.29.39.34,1.04.61,1.94.81.55.12.91.25,1.06.39.15.14.23.29.23.47,0,.18-.08.34-.24.48-.16.14-.39.21-.68.21-.4,0-.7-.14-.91-.41-.13-.17-.22-.41-.26-.73l-1.97.12c.06.68.31,1.23.75,1.67.44.44,1.23.66,2.37.66.65,0,1.19-.09,1.61-.28s.76-.46,1-.83c.24-.36.36-.76.36-1.19,0-.37-.09-.7-.27-.99-.18-.3-.46-.54-.86-.74-.39-.2-1.04-.4-1.95-.59-.37-.08-.6-.16-.69-.25-.1-.08-.15-.18-.15-.29,0-.15.06-.27.18-.37.12-.1.3-.15.54-.15.29,0,.52.07.69.21.17.14.28.36.33.66l1.95-.11c-.08-.7-.35-1.2-.8-1.52-.45-.32-1.1-.48-1.96-.48h0Z"/>
          <path class="cls-2" d="M148.58,30.08v1.16h-1.86l-.25.25v4.8h-1.57v-4.8l-.25-.25h-1.86v-1.16h5.79M148.83,29.83h-6.29v1.66h2.11v5.05h2.07v-5.05h2.11v-1.66h0Z"/>
          <path class="cls-2" d="M155.94,30.08v3.74c0,.37-.06.72-.17,1.04-.11.32-.29.59-.52.83-.24.24-.49.4-.74.5-.37.14-.83.21-1.36.21-.32,0-.67-.02-1.04-.07-.35-.04-.65-.12-.88-.25-.23-.12-.44-.29-.64-.52-.19-.22-.32-.45-.39-.68-.12-.4-.18-.76-.18-1.06v-3.74h1.57v3.84c0,.43.13.78.38,1.03.25.25.59.38,1.02.38s.76-.13,1.02-.38c.25-.25.38-.6.38-1.04v-3.84h1.57M156.19,29.83h-2.07v4.09c0,.37-.1.66-.3.86-.2.2-.48.3-.84.3s-.64-.1-.84-.31c-.2-.21-.3-.49-.3-.86v-4.09h-2.07v3.99c0,.33.06.71.19,1.13.08.26.23.52.44.77.21.25.45.44.71.58.26.14.58.23.97.27.39.05.74.07,1.07.07.56,0,1.05-.07,1.45-.22.29-.11.57-.29.83-.56.26-.26.46-.57.58-.92.12-.35.18-.73.18-1.12v-3.99h0Z"/>
          <path class="cls-2" d="M160.67,30.08c.57,0,1.03.08,1.37.23.33.15.61.36.83.63.22.28.39.61.48.98.1.39.16.8.16,1.23,0,.68-.08,1.21-.23,1.57-.15.36-.36.66-.62.9-.26.24-.54.4-.83.48-.43.12-.82.17-1.17.17h-2.83v-6.2h2.83M159.66,35.26h.51c.48,0,.82-.06,1.04-.17.23-.12.42-.33.54-.62.12-.28.18-.69.18-1.26,0-.78-.13-1.31-.41-1.62-.28-.32-.73-.48-1.34-.48h-.52l-.25.25v3.66l.25.25M160.67,29.83h-3.08v6.7h3.08c.37,0,.78-.06,1.23-.18.33-.09.64-.27.93-.53.29-.27.52-.6.68-.99.16-.39.25-.95.25-1.67,0-.46-.06-.89-.17-1.3-.11-.41-.29-.77-.53-1.08-.24-.31-.55-.54-.93-.71-.37-.17-.86-.25-1.47-.25h0ZM159.66,35.01v-3.66h.52c.54,0,.92.13,1.15.39.23.26.35.75.35,1.46,0,.54-.05.92-.16,1.16s-.25.41-.43.5c-.18.1-.49.14-.92.14h-.51Z"/>
          <path class="cls-2" d="M166.75,30.08v6.2h-1.58v-6.2h1.58M167,29.83h-2.08v6.7h2.08v-6.7h0Z"/>
          <path class="cls-2" d="M171.69,29.97c1.04,0,1.85.28,2.4.83.55.55.83,1.33.83,2.34,0,.74-.12,1.35-.37,1.81-.24.45-.59.81-1.04,1.07-.46.26-1.04.39-1.74.39s-1.31-.11-1.77-.34c-.45-.22-.82-.57-1.1-1.04-.28-.48-.43-1.1-.43-1.83,0-1.02.28-1.82.84-2.38.56-.56,1.36-.84,2.37-.84M171.7,35.35c.52,0,.93-.18,1.22-.52.29-.34.43-.9.43-1.72,0-.69-.15-1.21-.44-1.55-.3-.35-.71-.52-1.22-.52s-.89.18-1.2.53c-.3.35-.44.88-.44,1.63s.14,1.27.44,1.62c.3.35.71.53,1.22.53M171.69,29.72c-1.09,0-1.94.3-2.55.91-.61.61-.92,1.46-.92,2.56,0,.78.15,1.44.46,1.96.31.52.71.9,1.21,1.14.5.24,1.12.36,1.88.36s1.36-.14,1.86-.42c.5-.28.88-.67,1.14-1.17.26-.5.4-1.14.4-1.93,0-1.08-.3-1.92-.91-2.52-.6-.6-1.46-.9-2.58-.9h0ZM171.7,35.1c-.43,0-.77-.15-1.03-.44-.25-.3-.38-.78-.38-1.46s.13-1.17.38-1.47c.25-.3.59-.44,1.01-.44s.78.15,1.04.44c.25.29.38.75.38,1.38,0,.75-.12,1.27-.37,1.56-.24.29-.59.43-1.03.43h0Z"/>
        </g>
      </g>
      <rect class="cls-1" width="180" height="40"/>
    </g>
  </g>
</svg>