<?xml version="1.0" encoding="UTF-8"?>
<svg id="Layer_2" data-name="Layer 2" xmlns="http://www.w3.org/2000/svg" width="120" height="120" viewBox="0 0 120 120">
  <defs>
    <style>
      .cls-1, .cls-2 {
        stroke-width: 0px;
      }

      .cls-1, .cls-3 {
        fill: none;
      }

      .cls-2 {
        fill: #000;
      }

      .cls-3 {
        stroke: #000;
        stroke-miterlimit: 10;
      }
    </style>
  </defs>
  <g id="Layer_1-2" data-name="Layer 1">
    <g>
      <g>
        <path class="cls-3" d="M28.31,22.41l11.29-3.39,15.42,22.8.22-27.5,10.97-3.29-2.49,38.86-11.71,3.51-23.7-31Z"/>
        <path class="cls-2" d="M102.45,39.06l2.95,15.48c.59,3.09.65,5.69.19,7.7-.46,1.99-1.34,3.76-2.63,5.25-1.3,1.51-2.95,2.75-4.89,3.69-1.98.96-4.18,1.68-6.53,2.12-2.26.43-4.26.65-5.95.65-1.06,0-2.01-.09-2.83-.25-1.64-.34-3.17-.92-4.52-1.73l-1.51.95,3.03,33.24-17.73,1.62c-1.44.13-2.75.2-3.91.2-1.53,0-2.81-.12-3.82-.34-1.69-.38-3.06-1.22-4.2-2.57-1.13-1.34-1.8-3.09-1.99-5.18-.17-1.83.08-3.45.72-4.82.65-1.38,1.63-2.56,2.91-3.5.82-.6,2.01-1.16,3.53-1.65l-.08-1.92c-1.27-.3-2.2-.62-2.77-.96-.2-.12-.7-.49-1.76-1.58-1.02-1.06-1.46-1.64-1.66-1.96l-3.86-6.05-1.32-.34c-1.17.64-2.48,1.1-3.88,1.39l-1.04-8.73c1.47-.37,2.61-.92,3.46-1.67,1.65-1.45,2.41-3.43,2.27-5.9-.1-1.85-.65-3.29-1.62-4.3-.95-.97-2.03-1.47-3.23-1.47-.08,0-.16,0-.24,0-1.23.07-2.31.66-3.19,1.76-.83,1.03-1.47,3.05-2,6.35-.81,4.81-2.03,8.3-3.65,10.37-1.55,2-3.55,3.04-6.12,3.19-.16,0-.32.01-.47.01-1.5,0-2.97-.41-4.37-1.22-1.55-.89-2.83-2.32-3.81-4.26-1.01-1.99-1.62-4.85-1.82-8.49-.25-4.42.38-7.86,1.86-10.21,1.3-2.07,3.37-3.44,6.31-4.15l.99,8.64c-1.42.46-2.49,1.17-3.2,2.12-.83,1.13-1.2,2.63-1.1,4.45.09,1.54.51,2.73,1.27,3.54.75.8,1.64,1.2,2.66,1.2.07,0,.14,0,.21,0,.61-.03,1.49-.29,2.24-1.28.36-.45.9-1.39,1.34-4.33.77-4.87,1.63-8.41,2.56-10.51.89-2.01,2.04-3.5,3.43-4.45,1.39-.95,3.01-1.48,4.81-1.58.21-.01.42-.02.63-.02,1.89,0,3.7.49,5.38,1.47,1.86,1.08,3.34,2.68,4.4,4.76,1.08,2.13,1.72,4.92,1.91,8.3.26,4.7-.26,8.33-1.55,10.77l.98,1.46,4.71-.43,6.68,10.06c.99,1.51,1.84,2.47,2.63,2.94.87.49,1.83.74,2.83.74.19,0,.38,0,.58-.03l.99-.09.9-1.09-1.25-13.76,7.96-.73.6-1.72c-.97-.92-1.72-1.94-2.24-3.01-1.07-2.22-1.8-4.29-2.16-6.17l-2.95-15.48,33.9-6.47M84.81,64.72c1.28,0,2.89-.18,4.77-.54,4.08-.78,6.72-2,8.05-3.72,1.34-1.74,1.72-4.21,1.12-7.36l-.53-2.76-1.17-.79-19.59,3.74-.79,1.17.52,2.71c.48,2.5,1.1,4.21,1.91,5.23.84,1.06,2.09,1.78,3.69,2.14.57.13,1.25.19,2.02.19M62.55,102.26c.46,0,.97-.03,1.51-.07l4.93-.45.91-1.09-.67-7.39-1.09-.91-4.74.43c-.6.05-1.6.31-3.12.8-.97.29-1.73.87-2.28,1.73-.53.84-.76,1.78-.67,2.8.13,1.47.73,2.59,1.79,3.33.78.54,1.9.81,3.43.81M103.25,37.89l-35.86,6.84,3.14,16.46c.38,1.97,1.12,4.11,2.24,6.42.58,1.21,1.4,2.3,2.45,3.3l-8.96.82,1.35,14.76-.99.09c-.16.02-.33.02-.49.02-.84,0-1.62-.21-2.34-.61-.63-.38-1.4-1.25-2.29-2.62l-7.02-10.56-5.3.48c1.38-2.6,1.94-6.35,1.67-11.29-.2-3.53-.87-6.43-2.02-8.69-1.15-2.26-2.74-3.99-4.79-5.17-1.84-1.07-3.8-1.6-5.88-1.6-.23,0-.46,0-.69.02-1.99.11-3.76.69-5.32,1.75-1.55,1.06-2.81,2.68-3.78,4.87s-1.85,5.78-2.63,10.76c-.3,2.01-.68,3.3-1.13,3.85-.43.57-.94.88-1.52.91-.05,0-.1,0-.15,0-.73,0-1.37-.3-1.93-.89-.59-.63-.92-1.6-1-2.91-.09-1.59.22-2.86.91-3.8.7-.94,1.86-1.6,3.48-1.98l-1.21-10.58c-3.75.67-6.43,2.28-8.03,4.82-1.6,2.54-2.27,6.14-2.01,10.8.21,3.8.85,6.76,1.93,8.88,1.07,2.13,2.47,3.69,4.2,4.68,1.56.9,3.19,1.35,4.87,1.35.18,0,.35,0,.53-.01,2.85-.16,5.14-1.35,6.86-3.57,1.72-2.21,3-5.81,3.84-10.81.5-3.05,1.09-5.01,1.79-5.89.7-.87,1.52-1.33,2.47-1.38.06,0,.12,0,.18,0,.92,0,1.76.39,2.51,1.17.8.83,1.25,2.05,1.34,3.65.12,2.16-.53,3.85-1.94,5.1-.87.76-2.17,1.31-3.9,1.64l1.27,10.68c1.94-.28,3.68-.84,5.23-1.68l3.86,6.05c.31.51.91,1.21,1.78,2.12.87.91,1.53,1.49,1.97,1.75.65.39,1.67.75,3.05,1.07-1.64.53-2.91,1.13-3.81,1.8-1.42,1.05-2.5,2.34-3.22,3.88-.73,1.54-1,3.32-.81,5.34.21,2.31.95,4.23,2.22,5.74,1.27,1.51,2.85,2.48,4.74,2.91,1.09.25,2.43.37,4.04.37,1.19,0,2.52-.07,4-.2l18.72-1.71-3.12-34.23c1.44.86,3.05,1.49,4.84,1.85.89.18,1.9.28,3.03.28,1.76,0,3.8-.22,6.14-.67,2.45-.47,4.71-1.2,6.78-2.21s3.81-2.32,5.21-3.93,2.35-3.51,2.85-5.68c.5-2.17.44-4.87-.18-8.12l-3.14-16.46h0ZM84.81,63.72c-.7,0-1.3-.06-1.8-.17-1.39-.31-2.43-.91-3.13-1.79-.7-.88-1.27-2.48-1.71-4.79l-.52-2.71,19.59-3.74.53,2.76c.55,2.87.24,5.06-.93,6.57s-3.65,2.62-7.45,3.35c-1.83.35-3.36.52-4.59.52h0ZM62.55,101.26c-1.3,0-2.25-.21-2.86-.63-.8-.56-1.26-1.43-1.36-2.6-.07-.79.1-1.52.51-2.17.42-.65.99-1.09,1.72-1.31,1.44-.46,2.42-.72,2.93-.77l4.74-.43.67,7.39-4.93.45c-.51.05-.99.07-1.42.07h0Z"/>
      </g>
      <rect class="cls-1" width="120" height="120"/>
    </g>
  </g>
</svg>